<svg width="40" height="40" viewBox="0 0 40 40" fill="none" xmlns="http://www.w3.org/2000/svg">
<path d="M0 20C0 8.95431 8.95431 0 20 0C31.0457 0 40 8.95431 40 20C40 31.0457 31.0457 40 20 40C8.95431 40 0 31.0457 0 20Z" fill="white"/>
<path d="M24.031 12.8125H24.032C24.6118 12.8127 25.1858 12.9281 25.7205 13.1523C26.2552 13.3767 26.7398 13.7055 27.1462 14.1191C27.9751 14.963 28.4392 16.0984 28.4392 17.2812C28.4392 18.4641 27.9751 19.5995 27.1462 20.4434L19.9998 27.6797L12.8542 20.4434C12.0255 19.5996 11.5613 18.464 11.5613 17.2812C11.5613 16.0985 12.0255 14.9629 12.8542 14.1191C13.2608 13.7058 13.7463 13.3774 14.281 13.1533C14.8157 12.9293 15.3898 12.8135 15.9695 12.8135C16.5492 12.8135 17.1233 12.9292 17.658 13.1533C18.1926 13.3774 18.6772 13.7058 19.0837 14.1191L19.0847 14.1201L19.7781 14.8203L20.0007 15.0439L20.2224 14.8203L20.9158 14.1201L20.9177 14.1191C21.3237 13.7051 21.8078 13.3757 22.3425 13.1514C22.8771 12.9271 23.4513 12.8121 24.031 12.8125ZM24.032 13.4375C23.5329 13.4368 23.0385 13.5368 22.5789 13.7314C22.12 13.9258 21.7046 14.2102 21.3582 14.5684L20.0007 15.9521L18.6365 14.5566L18.6355 14.5557C18.2877 14.2016 17.8725 13.9205 17.4148 13.7285C16.9571 13.5365 16.4658 13.4375 15.9695 13.4375C15.473 13.4375 14.9811 13.5364 14.5232 13.7285C14.0655 13.9206 13.6503 14.2015 13.3025 14.5557C12.5885 15.2806 12.1882 16.2579 12.1882 17.2754C12.1883 18.2927 12.5886 19.2693 13.3025 19.9941H13.3035L19.7781 26.5508L20.0007 26.7764L20.2224 26.5508L26.698 19.9941C27.412 19.2693 27.8122 18.2928 27.8123 17.2754C27.8123 16.2578 27.4121 15.2806 26.698 14.5557C26.3504 14.2014 25.9359 13.9195 25.4783 13.7275C25.0204 13.5355 24.5284 13.4372 24.032 13.4375Z" fill="#BDBDBD" stroke="#252B42" stroke-width="0.625"/>
</svg>
